<?xml version="1.0" encoding="UTF-8" standalone="no"?>
<!-- Created with Inkscape (http://www.inkscape.org/) -->

<svg
   xmlns:dc="http://purl.org/dc/elements/1.1/"
   xmlns:cc="http://creativecommons.org/ns#"
   xmlns:rdf="http://www.w3.org/1999/02/22-rdf-syntax-ns#"
   xmlns:svg="http://www.w3.org/2000/svg"
   xmlns="http://www.w3.org/2000/svg"
   xmlns:sodipodi="http://sodipodi.sourceforge.net/DTD/sodipodi-0.dtd"
   xmlns:inkscape="http://www.inkscape.org/namespaces/inkscape"
   width="88.079239mm"
   height="24.509321mm"
   viewBox="0 0 88.079239 24.509321"
   version="1.1"
   id="svg8"
   inkscape:version="0.92.1 r15371"
   sodipodi:docname="ampm.svg">
  <defs
     id="defs2" />
  <sodipodi:namedview
     id="base"
     pagecolor="#ffffff"
     bordercolor="#666666"
     borderopacity="1.0"
     inkscape:pageopacity="0.0"
     inkscape:pageshadow="2"
     inkscape:zoom="0.98994949"
     inkscape:cx="-20.900471"
     inkscape:cy="43.206355"
     inkscape:document-units="mm"
     inkscape:current-layer="layer1"
     showgrid="false"
     fit-margin-top="0"
     fit-margin-left="0"
     fit-margin-right="0"
     fit-margin-bottom="0"
     inkscape:window-width="1505"
     inkscape:window-height="1014"
     inkscape:window-x="604"
     inkscape:window-y="358"
     inkscape:window-maximized="0" />
  <metadata
     id="metadata5">
    <rdf:RDF>
      <cc:Work
         rdf:about="">
        <dc:format>image/svg+xml</dc:format>
        <dc:type
           rdf:resource="http://purl.org/dc/dcmitype/StillImage" />
        <dc:title></dc:title>
      </cc:Work>
    </rdf:RDF>
  </metadata>
  <g
     inkscape:label="Capa 1"
     inkscape:groupmode="layer"
     id="layer1"
     transform="translate(-44.674078,-90.013304)">
    <g
       id="g4644"
       transform="matrix(0.35584673,0,0,0.35584673,57.145219,65.876244)">
      <path
         id="path4604"
         d="m -25.195069,136.65827 c -2.24156,-0.3503 -3.93088,-2.29968 -3.9262,-4.5306 0.003,-1.28739 0.44703,-2.36118 1.35116,-3.26531 0.91859,-0.91859 1.96678,-1.3533 3.25854,-1.3514 2.05889,0.003 3.80033,1.30951 4.42599,3.32046 0.0905,0.29089 0.13813,0.74091 0.13683,1.29287 -0.002,0.99194 -0.22309,1.74144 -0.7441,2.52637 -0.95141,1.43337 -2.82647,2.26948 -4.50222,2.00761 z"
         style="fill:#f18e0b;stroke-width:0.08466667"
         inkscape:connector-curvature="0" />
      <path
         id="path4602"
         d="m 68.417011,134.9214 c -1.24115,-0.23567 -2.78357,-1.23845 -2.6559,-1.72669 0.0562,-0.21501 0.90384,-1.02808 1.07175,-1.02808 0.0676,0 0.30714,0.15229 0.53238,0.33842 0.5353,0.44234 0.9959,0.65244 1.66453,0.75926 1.27783,0.20413 2.17771,-0.36294 2.17771,-1.37231 0,-0.83788 -0.46726,-1.1846 -2.03102,-1.50707 -2.39347,-0.49356 -3.1831,-1.20715 -3.28346,-2.96725 -0.13431,-2.35551 1.62775,-3.80447 4.22197,-3.47177 0.40591,0.0521 0.90225,0.15259 1.10299,0.22341 0.79505,0.28051 1.59818,0.89503 1.59818,1.22285 0,0.20787 -0.89113,1.09689 -1.10254,1.09994 -0.0709,0.001 -0.2729,-0.11687 -0.44893,-0.26197 -0.72162,-0.59482 -2.02506,-0.78171 -2.72419,-0.39061 -0.45415,0.25406 -0.74532,0.80949 -0.69211,1.32027 0.0775,0.74377 0.54374,1.05458 2.08911,1.39254 1.4664,0.3207 1.90717,0.51258 2.46976,1.07517 0.3842,0.38419 0.51103,0.58221 0.62841,0.98107 0.18565,0.63084 0.18917,1.62877 0.008,2.23538 -0.26808,0.89711 -1.09547,1.7078 -2.03496,1.99389 -0.61815,0.18824 -1.8338,0.22742 -2.59158,0.0836 z"
         style="fill:#f18e0b;stroke-width:0.08466667"
         inkscape:connector-curvature="0" />
      <path
         id="path4600"
         d="m 79.762341,134.9154 c -0.84379,-0.15267 -1.90292,-0.68133 -2.3613,-1.17862 -0.19336,-0.20974 -0.35156,-0.42641 -0.35156,-0.48147 0,-0.15343 0.97011,-1.08901 1.1292,-1.08901 0.0772,0 0.28569,0.13134 0.46337,0.29187 0.98088,0.88616 2.6586,1.12564 3.41675,0.4877 0.33129,-0.27876 0.49401,-0.66343 0.49401,-1.16781 0,-0.34286 -0.0415,-0.43516 -0.32129,-0.71497 -0.34075,-0.34075 -0.45758,-0.38328 -2.15924,-0.78593 -0.5028,-0.11898 -1.09335,-0.30305 -1.31233,-0.40904 -0.56657,-0.27426 -1.06652,-0.76736 -1.29872,-1.28093 -0.17309,-0.38283 -0.20009,-0.57396 -0.20009,-1.41622 0,-0.8933 0.0194,-1.01323 0.23532,-1.45286 0.75844,-1.54442 2.5944,-2.1718 4.75494,-1.62483 0.67481,0.17084 1.09331,0.39501 1.57016,0.84104 0.21891,0.20477 0.42305,0.34729 0.45364,0.3167 0.0306,-0.0306 0.0556,-0.25119 0.0556,-0.49023 0,-0.23905 0.0457,-0.48035 0.1016,-0.53623 0.14607,-0.14607 7.18606,-0.14607 7.33213,0 0.12134,0.12134 0.13619,1.23644 0.0189,1.42241 -0.0634,0.10059 -0.34919,0.1358 -1.37454,0.16933 l -1.29447,0.0423 -0.0423,4.37732 c -0.0332,3.43385 -0.0661,4.40103 -0.1524,4.48733 -0.15201,0.15194 -1.5752,0.15193 -1.7272,0 -0.0869,-0.0868 -0.11499,-1.03705 -0.13343,-4.5085 l -0.0234,-4.39848 h -1.22546 c -1.13406,0 -1.2388,-0.0133 -1.40419,-0.17874 l -0.17874,-0.17874 -0.52205,0.51741 c -0.28712,0.28457 -0.57306,0.5174 -0.63541,0.5174 -0.0624,0 -0.29539,-0.1336 -0.51783,-0.29689 -0.55022,-0.4039 -1.00974,-0.55003 -1.72438,-0.54839 -0.778,0.002 -1.19892,0.21862 -1.47103,0.75773 -0.37174,0.73652 -0.15328,1.40486 0.57215,1.75036 0.2092,0.0996 0.8185,0.27731 1.35402,0.39483 0.53552,0.11752 1.19089,0.29523 1.4564,0.3949 0.59881,0.2248 1.25872,0.80599 1.50143,1.32233 0.40781,0.86758 0.36739,2.23248 -0.0916,3.09365 -0.73024,1.37006 -2.30924,1.92917 -4.3867,1.55327 z"
         style="fill:#f18e0b;stroke-width:0.08466667"
         inkscape:connector-curvature="0" />
      <path
         id="path4598"
         d="m 112.82114,134.9902 c -1.72604,-0.2769 -2.75375,-1.32446 -3.00527,-3.06333 -0.0449,-0.3107 -0.0817,-1.42216 -0.0817,-2.46991 0,-2.95409 0.16074,-3.65024 1.04757,-4.53707 0.59797,-0.59798 1.13206,-0.83717 2.18597,-0.979 1.37103,-0.18452 2.80272,0.25806 3.53943,1.09413 0.43553,0.49427 0.60525,0.81154 0.53376,0.99782 -0.0683,0.17805 -1.01781,0.79945 -1.22153,0.79945 -0.0828,0 -0.29026,-0.17052 -0.46105,-0.37893 -0.18228,-0.22245 -0.49877,-0.47104 -0.76641,-0.60198 -0.39454,-0.19304 -0.53968,-0.21882 -1.07863,-0.19161 -0.78652,0.0397 -1.21172,0.29127 -1.50738,0.89177 -0.19442,0.39489 -0.20154,0.48184 -0.22568,2.7554 -0.0154,1.44498 0.009,2.47366 0.0633,2.67538 0.22884,0.84982 0.85473,1.30954 1.7829,1.30954 0.71633,0 1.23724,-0.23429 1.66882,-0.75062 0.16944,-0.20269 0.3631,-0.38965 0.43037,-0.41546 0.15238,-0.0585 1.17121,0.50236 1.27922,0.70418 0.15404,0.28784 -0.39293,1.08489 -1.05895,1.54312 -0.56485,0.38863 -1.24069,0.58918 -2.10875,0.62576 -0.4191,0.0177 -0.8763,0.0138 -1.016,-0.009 z"
         style="fill:#f18e0b;stroke-width:0.08466667"
         inkscape:connector-curvature="0" />
      <path
         id="path4596"
         d="m 169.00246,134.9132 c -1.10125,-0.23879 -1.86393,-0.79922 -2.31642,-1.70215 -0.39572,-0.78962 -0.44033,-1.17138 -0.43873,-3.75413 0.002,-2.63732 0.0575,-3.05474 0.52382,-3.91147 0.74478,-1.3684 2.74808,-1.99031 4.68169,-1.4534 0.82727,0.22971 1.67712,0.90604 2.00655,1.59686 0.11906,0.24967 0.12148,0.30809 0.018,0.43362 -0.18462,0.224 -0.981,0.70972 -1.16364,0.70972 -0.0915,0 -0.30467,-0.17264 -0.48495,-0.39265 -0.47086,-0.57462 -1.0527,-0.81977 -1.85008,-0.77951 -0.75624,0.0382 -1.12268,0.25711 -1.46601,0.87583 l -0.23489,0.42333 v 2.49993 2.49992 l 0.2163,0.42032 c 0.30655,0.59569 0.82101,0.90296 1.53635,0.91763 0.75105,0.0154 1.22318,-0.1879 1.74939,-0.75328 0.23659,-0.2542 0.47887,-0.46182 0.53839,-0.46138 0.1653,0.001 1.16486,0.65821 1.21997,0.80186 0.0726,0.18921 -0.33694,0.82775 -0.7824,1.21986 -0.94033,0.82771 -2.30793,1.12252 -3.75336,0.80909 z"
         style="fill:#f18e0b;stroke-width:0.08466667"
         inkscape:connector-curvature="0" />
      <path
         d="m 62.260321,131.08677 c 0.0641,-0.10853 -1.23509,-4.43052 -1.323,-4.40122 -0.0761,0.0254 -1.32149,4.11652 -1.32684,4.35889 -0.002,0.0802 0.31432,0.10583 1.305,0.10583 0.71903,0 1.32421,-0.0286 1.34484,-0.0635 z m -5.50968,3.70153 c -0.10477,-0.0421 -0.1905,-0.12791 -0.1905,-0.19066 0,-0.19308 3.22485,-10.08139 3.35396,-10.2842 0.11353,-0.17833 0.17931,-0.19042 1.0295,-0.1892 0.49951,6.7e-4 0.95936,0.0337 1.02187,0.0733 0.1172,0.0743 3.40001,10.06237 3.40001,10.34467 0,0.24043 -0.26532,0.33349 -0.94694,0.33211 -0.91129,-0.002 -0.98922,-0.0636 -1.28009,-1.01516 -0.13517,-0.44215 -0.28459,-0.85155 -0.33207,-0.90975 -0.0642,-0.0787 -0.55113,-0.10584 -1.89809,-0.10584 -2.09225,0 -1.81655,-0.14162 -2.19272,1.12641 -0.1822,0.61417 -0.25822,0.75951 -0.43179,0.8255 -0.26332,0.10012 -1.27799,0.0953 -1.53314,-0.007 z"
         style="fill:#f18e0b;stroke-width:0.08466667"
         id="path4592"
         inkscape:connector-curvature="0" />
      <path
         id="path4590"
         d="m 74.020311,134.74381 -0.18817,-0.1318 v -5.10135 c 0,-3.98 0.0236,-5.13355 0.10711,-5.24784 0.0914,-0.12506 0.23077,-0.14291 0.9525,-0.12202 l 0.84539,0.0245 0.0218,5.27235 0.0218,5.27236 -0.21782,0.0828 c -0.35062,0.13331 -1.32662,0.10231 -1.54263,-0.049 z"
         style="fill:#f18e0b;stroke-width:0.08466667"
         inkscape:connector-curvature="0" />
      <path
         id="path4588"
         d="m 92.914181,134.79231 c -0.0988,-0.0399 -0.20357,-0.16795 -0.23283,-0.28454 -0.0893,-0.35591 -0.0617,-9.92819 0.0294,-10.16767 l 0.0826,-0.21718 h 3.30112 c 3.7938,0 3.47641,-0.0795 3.47641,0.87032 0,0.85536 0.10259,0.82302 -2.61017,0.82302 h -2.3005 v 1.35466 1.35467 h 1.93115 c 1.42661,0 1.96954,0.0281 2.07807,0.10743 0.12327,0.0901 0.14292,0.22309 0.12202,0.8255 l -0.0249,0.71807 -2.032,0.0423 -2.032,0.0423 -0.0232,1.41817 -0.0232,1.41816 h 2.27867 c 2.76422,0 2.65782,-0.0377 2.61911,0.92915 -0.0231,0.57796 -0.0437,0.64207 -0.23701,0.73959 -0.24802,0.1251 -6.09843,0.14885 -6.40263,0.026 z"
         style="fill:#f18e0b;stroke-width:0.08466667"
         inkscape:connector-curvature="0" />
      <path
         id="path4586"
         d="m 100.95751,134.79631 c -0.0988,-0.0422 -0.20357,-0.1722 -0.23283,-0.28879 -0.0893,-0.35591 -0.0617,-9.92819 0.0294,-10.16767 0.0819,-0.21552 0.0899,-0.21717 1.03717,-0.21588 0.52503,6.8e-4 1.0047,0.0331 1.06594,0.0719 0.0612,0.0388 0.86609,1.55113 1.78855,3.36067 0.92247,1.80953 1.72009,3.30435 1.77249,3.32181 0.0695,0.0232 0.0953,-0.85872 0.0953,-3.26036 0,-2.44765 0.0261,-3.31818 0.1016,-3.39372 0.0645,-0.0645 0.38994,-0.1016 0.8911,-0.1016 0.77427,0 0.79112,0.004 0.87401,0.22228 0.13636,0.35867 0.0681,10.23815 -0.0717,10.37803 -0.15459,0.15467 -1.52004,0.19255 -1.78474,0.0495 -0.1442,-0.0779 -0.70189,-1.09392 -1.96443,-3.5788 -0.96968,-1.90849 -1.80299,-3.48329 -1.85179,-3.49956 -0.0609,-0.0203 -0.0891,1.05538 -0.09,3.42765 -8.4e-4,2.01588 -0.0346,3.50984 -0.0811,3.58343 -0.0936,0.148 -1.28503,0.21673 -1.57891,0.0911 z"
         style="fill:#f18e0b;stroke-width:0.08466667"
         inkscape:connector-curvature="0" />
      <path
         id="path4584"
         d="m 118.14486,134.79631 c -0.0988,-0.0422 -0.20358,-0.1722 -0.23284,-0.28879 -0.0893,-0.35591 -0.0617,-9.92819 0.0294,-10.16767 0.081,-0.21312 0.0984,-0.21718 0.92837,-0.21718 0.74954,0 0.85575,0.0186 0.93342,0.16377 0.0576,0.10762 0.0876,1.88746 0.0876,5.19082 0,4.19395 -0.0198,5.05413 -0.11947,5.19043 -0.0977,0.1336 -0.24043,0.16721 -0.78316,0.1844 -0.36504,0.0116 -0.74454,-0.0135 -0.84333,-0.0558 z"
         style="fill:#f18e0b;stroke-width:0.08466667"
         inkscape:connector-curvature="0" />
      <path
         d="m 126.57948,131.0128 c 0,-0.15388 -1.05709,-3.85425 -1.19189,-4.17224 -0.05,-0.11805 -0.11693,-0.17133 -0.15942,-0.127 -0.0827,0.0863 -1.27335,4.11788 -1.27335,4.31157 0,0.10504 0.21089,0.12515 1.31233,0.12515 1.15453,0 1.31233,-0.0165 1.31233,-0.13748 z m -5.48216,3.77551 c -0.10478,-0.0421 -0.1905,-0.14042 -0.1905,-0.21845 0,-0.25348 3.2358,-10.14602 3.36867,-10.29875 0.10773,-0.12383 0.27756,-0.14817 1.03399,-0.14817 0.75787,0 0.92544,0.0241 1.03024,0.14817 0.12915,0.15291 3.37243,10.06212 3.37243,10.3038 0,0.2138 -0.40945,0.31726 -1.13013,0.28558 -0.80916,-0.0356 -0.86378,-0.0875 -1.14852,-1.09097 -0.11147,-0.39283 -0.24019,-0.76259 -0.28606,-0.82169 -0.0638,-0.0822 -0.51286,-0.10211 -1.91317,-0.0847 l -1.82979,0.0228 -0.27404,0.84666 c -0.343,1.05976 -0.43552,1.14476 -1.23817,1.13764 -0.33245,-0.003 -0.69018,-0.0398 -0.79495,-0.0819 z"
         style="fill:#f18e0b;stroke-width:0.08466667"
         id="path4580"
         inkscape:connector-curvature="0" />
      <path
         id="path4578"
         d="m 133.55419,134.79233 c -0.0988,-0.0399 -0.20357,-0.16795 -0.23284,-0.28454 -0.0893,-0.35591 -0.0617,-9.92819 0.0294,-10.16767 l 0.0826,-0.21718 h 1.3464 c 0.97472,0 1.37017,0.0292 1.43254,0.10584 0.0474,0.0582 0.63505,1.72256 1.30592,3.69857 0.67088,1.97601 1.26042,3.60629 1.3101,3.62285 0.0518,0.0173 0.60863,-1.51211 1.30475,-3.58349 0.66793,-1.98748 1.2662,-3.66538 1.32949,-3.72868 0.0871,-0.0871 0.43356,-0.11509 1.42347,-0.11509 h 1.30838 l 0.0845,0.22228 c 0.13645,0.3589 0.0681,10.23818 -0.0718,10.37803 -0.074,0.074 -0.36036,0.11003 -0.87465,0.11003 -0.65915,0 -0.78117,-0.0227 -0.88477,-0.16435 -0.0993,-0.13581 -0.12018,-0.78642 -0.12018,-3.7465 0,-1.97018 -0.0317,-3.58215 -0.0705,-3.58215 -0.0387,0 -0.61977,1.60669 -1.29116,3.57043 -0.67139,1.96373 -1.28402,3.64965 -1.36139,3.74649 -0.1215,0.15206 -0.23356,0.17608 -0.82127,0.17608 -0.39821,0 -0.7208,-0.0402 -0.77751,-0.0969 -0.0712,-0.0712 -2.62087,-7.32784 -2.62087,-7.45934 0,-0.0118 -0.0381,-0.0214 -0.0847,-0.0214 -0.0551,0 -0.0847,1.28251 -0.0847,3.6782 v 3.67819 l -0.18817,0.13181 c -0.20647,0.14462 -1.15763,0.17594 -1.47312,0.0485 z"
         style="fill:#f18e0b;stroke-width:0.08466667"
         inkscape:connector-curvature="0" />
      <path
         id="path4576"
         d="m 146.30682,134.81843 c -0.33796,-0.12487 -0.33867,-0.13602 -0.33867,-5.28745 0,-3.02671 0.0323,-5.05865 0.0826,-5.19082 l 0.0826,-0.21718 h 3.30112 c 3.17707,0 3.30441,0.006 3.38876,0.16377 0.13653,0.25511 0.10792,1.12428 -0.0442,1.34139 -0.13076,0.18668 -0.15025,0.18818 -2.45534,0.18818 h -2.32353 v 1.35466 1.35467 h 1.91056 c 1.15509,0 1.97533,0.0347 2.07434,0.0876 0.14038,0.0751 0.16358,0.18092 0.16247,0.74083 -8.5e-4,0.35926 -0.0311,0.70009 -0.0675,0.75742 -0.0487,0.0766 -0.59292,0.11027 -2.05188,0.127 l -1.98566,0.0228 -0.0232,1.41817 -0.0232,1.41816 h 2.28805 c 2.70886,0 2.62672,-0.0273 2.62672,0.87282 0,0.92418 0.24387,0.86036 -3.35861,0.87887 -1.71512,0.009 -3.17554,-0.005 -3.24539,-0.0309 z"
         style="fill:#f18e0b;stroke-width:0.08466667"
         inkscape:connector-curvature="0" />
      <path
         d="m 158.44463,132.99379 c 0.44344,-0.13286 0.91819,-0.60761 1.05105,-1.05105 0.0704,-0.23492 0.1038,-1.05344 0.1038,-2.54251 0,-2.19455 0,-2.19636 -0.21985,-2.63724 -0.16322,-0.32755 -0.32133,-0.50084 -0.61383,-0.67279 -0.36858,-0.21667 -0.46907,-0.2335 -1.55815,-0.26089 l -1.16417,-0.0293 v 3.64878 3.64879 h 1.02735 c 0.56631,0 1.18282,-0.0466 1.3738,-0.1038 z m -4.09448,1.82864 c -0.3384,-0.13585 -0.33867,-0.14002 -0.33867,-5.29151 0,-3.0267 0.0323,-5.05865 0.0826,-5.19082 l 0.0826,-0.21717 2.18226,0.001 c 2.30511,0.001 2.88968,0.0703 3.57958,0.42224 0.73685,0.37591 1.24495,1.01367 1.49978,1.88249 0.17537,0.59791 0.25404,4.43291 0.11134,5.42796 -0.22161,1.54537 -0.96745,2.41154 -2.42211,2.8129 -0.38159,0.10528 -0.99812,0.14622 -2.57599,0.17102 -1.14088,0.0179 -2.13148,0.01 -2.20133,-0.0184 z"
         style="fill:#f18e0b;stroke-width:0.08466667"
         id="path4572"
         inkscape:connector-curvature="0" />
      <path
         id="path4570"
         d="m 163.18752,134.79656 c -0.0988,-0.0422 -0.20357,-0.1722 -0.23283,-0.28879 -0.0893,-0.35591 -0.0617,-9.92819 0.0294,-10.16767 0.081,-0.21312 0.0984,-0.21717 0.92836,-0.21717 0.74955,0 0.85575,0.0186 0.93343,0.16376 0.0576,0.10762 0.0876,1.88746 0.0876,5.19082 0,4.19395 -0.0198,5.05413 -0.11946,5.19043 -0.0977,0.1336 -0.24044,0.16721 -0.78317,0.1844 -0.36504,0.0116 -0.74453,-0.0135 -0.84333,-0.0558 z"
         style="fill:#f18e0b;stroke-width:0.08466667"
         inkscape:connector-curvature="0" />
      <path
         d="m 179.41364,131.00237 c 0.004,-0.28867 -1.21815,-4.34306 -1.30105,-4.31543 -0.0773,0.0258 -1.32014,4.11614 -1.32406,4.35776 -0.001,0.0802 0.31628,0.10583 1.31062,0.10583 1.19257,0 1.31253,-0.0135 1.31449,-0.14816 z m -5.48432,3.78619 c -0.10478,-0.0421 -0.1905,-0.13249 -0.1905,-0.20083 0,-0.20062 3.21967,-10.06495 3.35339,-10.27403 0.11404,-0.1783 0.18003,-0.19042 1.03006,-0.18921 0.49952,6.8e-4 0.9586,0.0332 1.02017,0.0723 0.11309,0.0717 3.40171,10.08418 3.40171,10.35676 0,0.22938 -0.27444,0.32244 -0.94694,0.32108 -0.90992,-0.002 -0.99058,-0.0653 -1.29415,-1.01845 -0.14112,-0.44308 -0.28741,-0.85211 -0.32507,-0.90895 -0.0504,-0.076 -0.54907,-0.10335 -1.88566,-0.10335 -2.09846,0 -1.8219,-0.14173 -2.19809,1.1264 -0.1822,0.61417 -0.25821,0.75951 -0.43179,0.8255 -0.26332,0.10012 -1.27799,0.0953 -1.53313,-0.007 z"
         style="fill:#f18e0b;stroke-width:0.08466667"
         id="path4566"
         inkscape:connector-curvature="0" />
      <path
         d="m -5.4911386,109.76633 c 2.27254,-3.61667 4.12603,-8.30627 5.32271002,-13.467277 0.5527,-2.38366 1.30853998,-7.13466 1.15888,-7.28433 -0.15289,-0.15288 -3.36190002,0.59882 -5.31514002,1.24507 -4.31892,1.42894 -8.6118304,3.7293 -13.0080004,6.97032 -0.7112,0.52433 -1.03716,0.81659 -1.03716,0.92994 0,0.21508 1.12684,1.81681 2.3321,3.314927 2.32805,2.89373 5.08913,5.51307 8.5378104,8.09951 0.7397,0.55476 1.3874,0.99498 1.43933,0.97826 0.0519,-0.0167 0.30819,-0.37061 0.56947,-0.78642 z m -12.5423404,17.06139 c -1.21473,-0.17895 -2.38216,-0.78756 -3.42729,-1.7867 -1.01265,-0.96811 -1.69522,-1.93982 -2.45857,-3.50004 -0.96055,-1.96329 -1.51416,-3.61517 -2.1026,-6.27381 -0.45367,-2.04976 -0.90895,-5.19853 -0.75165,-5.19853 0.0438,0 0.18308,0.31433 0.3096,0.6985 1.08204,3.28555 2.46035,5.79234 4.06476,7.39275 0.95565,0.95326 1.67227,1.42404 2.71704,1.78495 0.60185,0.20791 0.79529,0.23366 1.73567,0.2311 1.24329,-0.003 2.05025,-0.20689 3.28309,-0.8279 1.29647,-0.65307 2.14474,-1.33049 4.09223,-3.26806 1.5340504,-1.52624 3.1233504,-3.30619 3.1233504,-3.49803 0,-0.0273 -0.25718,-0.19041 -0.5715,-0.3624 -5.7367604,-3.13905 -9.5053904,-5.85602 -12.9904404,-9.36538 -0.73019,-0.73527 -1.37491,-1.33686 -1.43273,-1.33686 -0.1323,0 -4.00066,3.87474 -5.1139,5.12233 -1.12788,1.264 -2.74537,3.21158 -3.72629,4.48672 -1.47622,1.919 -1.2119,1.33511 0.65975,-1.45745 1.95327,-2.91432 3.60942,-5.14538 5.73377,-7.72415 0.58209,-0.70659 1.14461,-1.39101 1.25006,-1.52093 l 0.19172,-0.23621 -0.5646,-0.753317 c -2.78436,-3.71503 -4.5286,-7.70609 -5.25055,-12.01399 -0.23308,-1.39078 -0.21254,-3.71085 0.042,-4.74133 0.5114,-2.07062 1.81285,-3.64973 3.6964,-4.48502 2.79231,-1.23828 7.22959,-1.18982 12.573,0.13732 2.47857,0.61559 4.3669504,1.29448 3.1646604,1.13771 -3.0992004,-0.4041 -6.2027404,-0.24329 -8.3716604,0.43377 -1.21598,0.37959 -2.11362,0.90535 -2.92814,1.71504 -0.80095,0.79622 -1.13084,1.31302 -1.48802,2.33118 -0.22801,0.64991 -0.23768,0.74244 -0.23906,2.286 -10e-4,1.27737 0.0312,1.74815 0.1569,2.286 0.18069,0.77296 0.79115,2.60977 1.32252,3.97933 0.50473,1.3009 1.57627,3.51367 1.70151,3.51367 0.0573,0 0.6601,-0.54393 1.33957,-1.20873 3.94052,-3.85547 8.27042,-7.0233 12.4960604,-9.14233 2.36304,-1.185 3.88982,-1.76325 6.75216002,-2.55729 l 0.48682998,-0.13505 -7.6e-4,-2.4318 c -6.7e-4,-2.16191 -0.0564,-3.69727 -0.21409,-5.90314 -0.0772,-1.07952 0.10337,-0.58332 0.34174,0.93909 0.22666,1.44761 0.57153,4.28512 0.72453,5.96125 0.0531,0.58208 0.12916,1.09274 0.16896,1.13479 0.0429,0.0453 0.47903,0.0183 1.07115,-0.0664 1.8040602,-0.25801 3.5508302,-0.33551 5.2180002,-0.23152 2.8173104,0.17573 4.6523504,0.5788 6.2646004,1.37605 0.90892,0.44946 1.35878,0.76901 2.01484,1.43125 0.67637,0.68274 1.09989,1.38192 1.457,2.40532 0.26422,0.75719 0.26731,0.78497 0.265,2.37482 -0.002,1.33141 -0.0337,1.74851 -0.18423,2.42006 -0.55085,2.4574 -1.77116,5.30826 -3.49151,8.156817 -1.0129,1.67716 -2.26139,3.49218 -2.3448,3.40878 -0.019,-0.019 0.23142,-0.697 0.5564,-1.50674 1.13586,-2.830107 1.52408,-4.434017 1.59087,-6.572527 0.0408,-1.30543 0.0258,-1.54514 -0.1415,-2.26924 -0.28697,-1.24185 -0.7322,-2.05052 -1.60629,-2.91748 -1.28166,-1.27123 -2.78712,-1.88387 -5.2060104,-2.11858 -0.80764,-0.0784 -4.5489802,0.0227 -4.9963102,0.13499 l -0.19058,0.0478 -0.0554,2.55538 c -0.0582,2.68454 -0.1388,4.12579 -0.35608,6.36537 -0.51069,5.263837 -1.70656998,10.337177 -3.34452,14.188627 -0.66487,1.56336 -0.65999,1.5399 -0.36391,1.74941 0.78930002,0.55854 5.16891,2.79005 7.4372102,3.78942 0.96498,0.42516 3.36173,1.38462 5.2893604,2.11745 2.24714,0.85428 -2.8628204,-0.52931 -6.2630204,-1.6958 -1.7822802,-0.61144 -4.21181018,-1.52771 -5.87402018,-2.21532 -0.83465002,-0.34527 -1.56258002,-0.61048 -1.61763002,-0.58935 -0.055,0.0211 -0.30211,0.39447 -0.54903,0.82965 -1.58726,2.79751 -3.90516,5.52827 -6.39627,7.53556 -3.3361904,2.68824 -6.1830204,3.82086 -8.6793504,3.4531 z"
         style="fill:#0075be;fill-opacity:1;stroke-width:0.08466667"
         id="path4562"
         inkscape:connector-curvature="0" />
      <path
         id="path4560"
         d="m 148.67686,122.97956 c -0.0878,-0.10583 -0.0367,-0.24747 0.29818,-0.8255 0.22231,-0.38376 0.53159,-0.89777 0.68728,-1.14225 l 0.28306,-0.4445 h 0.80804 c 0.65859,0 0.81755,0.0248 0.85941,0.13387 0.0484,0.12607 -1.07052,1.88787 -1.43251,2.25561 -0.19821,0.20135 -1.34089,0.21866 -1.50346,0.0228 z"
         style="fill:#f18e0b;stroke-width:0.08466667"
         inkscape:connector-curvature="0" />
      <g
         style="fill:#0075be;fill-opacity:1"
         id="g4617">
        <path
           id="path4556"
           style="fill:#0075be;fill-opacity:1;stroke-width:0.08466667"
           d="m 53.548691,100.25665 c 0.0466,-0.0754 -6.13621,-18.498577 -6.24444,-18.606807 -0.0316,-0.0316 -0.0769,-0.038 -0.10064,-0.0143 -0.10851,0.10852 -6.39498,18.537507 -6.3489,18.612057 0.0666,0.10782 12.6274,0.11672 12.69398,0.009 z m -26.92538,15.11548 c -0.045,-0.11732 15.5729,-42.850527 15.73139,-43.043667 0.12684,-0.15458 11.01317,-0.15458 11.13644,0 0.12839,0.16102 15.43034,42.790577 15.43034,42.987247 0,0.17041 -0.0341,0.17157 -5.0165,0.17029 -2.75908,-6.8e-4 -5.06001,-0.0293 -5.11319,-0.0635 -0.0532,-0.0342 -0.67034,-1.75766 -1.37145,-3.82987 -0.70112,-2.07222 -1.31862,-3.89167 -1.37223,-4.04323 l -0.0975,-0.27556 -8.76693,0.0216 -8.76694,0.0216 -1.37538,3.97933 c -0.75646,2.18864 -1.41915,4.02696 -1.47265,4.08517 -0.14943,0.16259 -8.88296,0.15349 -8.94543,-0.009 z"
           inkscape:connector-curvature="0" />
        <path
           style="fill:#0075be;fill-opacity:1;stroke-width:0.08466667"
           d="m 72.196031,115.43162 c -0.0315,-0.0315 -0.0566,-8.95674 -0.056,-19.833937 0.001,-21.72708 -0.0336,-20.27256 0.51406,-21.35754 0.49604,-0.98265 1.42669,-1.6941 2.51569,-1.92315 0.30183,-0.0635 2.15037,-0.0944 5.64852,-0.0944 4.86741,0 5.20462,0.01 5.27437,0.14817 0.041,0.0815 2.22059,6.64422 4.84356,14.58383 2.62295,7.93962 4.81582,14.487667 4.87303,14.551227 0.0838,0.0931 0.77292,-1.905907 3.54624,-10.286997 1.893239,-5.72141 4.081419,-12.32661 4.862639,-14.67823 l 1.4204,-4.27566 5.15762,-0.0234 c 4.39624,-0.0199 5.24512,-0.004 5.75029,0.10724 1.35596,0.2988 2.28312,1.20836 2.80573,2.75245 0.15167,0.44812 0.15845,1.21398 0.17998,20.32979 0.0189,16.786217 0.004,19.879117 -0.0942,19.960887 -0.0851,0.0706 -1.37391,0.0909 -4.76371,0.0749 l -4.64713,-0.0219 -0.0214,-15.987807 c -0.0168,-12.55209 -0.0436,-15.9804 -0.12488,-15.95332 -0.0569,0.019 -2.52379,7.17713 -5.48195,15.90702 -2.95814,8.729887 -5.409269,15.918397 -5.446939,15.974477 -0.0516,0.0768 -0.9204,0.10165 -3.51367,0.10067 -1.89485,-6.8e-4 -3.49136,-0.0307 -3.54782,-0.0665 -0.0564,-0.0359 -2.44961,-6.97902 -5.31812,-15.429197 -5.95576,-17.54472 -5.62697,-16.59164 -5.72366,-16.59164 -0.0412,0 -0.0829,7.0421 -0.0949,16.02317 l -0.0214,16.023157 -4.23962,0.0219 c -2.33179,0.0121 -4.26536,-0.004 -4.29683,-0.0353 z"
           id="path4554"
           inkscape:connector-curvature="0" />
        <path
           id="path4550"
           style="fill:#0075be;fill-opacity:1;stroke-width:0.08466667"
           d="m 147.19267,92.091003 c 2.08793,-0.64761 3.29762,-1.84344 3.87214,-3.82782 0.17048,-0.58879 0.19501,-0.85991 0.19501,-2.15518 0,-1.6571 -0.0881,-2.13653 -0.58368,-3.175 -0.65909,-1.38123 -1.70547,-2.18569 -3.49484,-2.68683 -0.64171,-0.17972 -0.82125,-0.18655 -5.63698,-0.21427 l -4.97417,-0.0286 v 6.18943 6.18943 l 4.93183,-0.0279 4.93184,-0.0279 z m -20.26432,23.281617 c -0.0701,-0.0844 -0.0896,-5.79123 -0.0739,-21.611157 l 0.0213,-21.49647 10.37166,7.7e-4 c 10.33199,7.6e-4 10.37621,10e-4 11.557,0.19044 5.04875,0.80802 8.5416,3.07426 10.44283,6.77557 2.13586,4.15809 2.04022,10.42725 -0.21656,14.19505 -1.87666,3.13317 -5.13584,5.16696 -9.42193,5.87948 -1.70103,0.28278 -3.22217,0.34666 -8.27617,0.34755 l -4.7625,8.1e-4 v 7.801787 c 0,5.64415 -0.0263,7.83349 -0.095,7.91633 -0.141,0.1699 -9.40576,0.16971 -9.54677,-1.7e-4 z"
           inkscape:connector-curvature="0" />
        <path
           style="fill:#0075be;fill-opacity:1;stroke-width:0.08466667"
           d="m 165.1968,115.37156 c -0.0712,-0.0858 -0.09,-5.26373 -0.0728,-20.002497 0.0257,-21.94821 -0.0238,-20.00486 0.53891,-21.154 0.46153,-0.94258 1.46155,-1.69425 2.53209,-1.90326 0.66721,-0.13026 10.76586,-0.11559 10.85162,0.0158 0.0377,0.0577 2.2402,6.65257 4.8945,14.65526 2.6543,8.0027 4.8641,14.550217 4.91066,14.550057 0.0466,-1.7e-4 2.25637,-6.548867 4.91067,-14.552677 2.6543,-8.00381 4.85683,-14.59854 4.8945,-14.65496 0.0882,-0.13204 10.04027,-0.14806 10.72991,-0.0173 1.39329,0.26423 2.39297,1.16595 2.8912,2.60789 l 0.19572,0.56646 V 95.463673 115.445 h -4.74133 -4.74133 l -0.0214,-15.980827 c -0.0127,-9.50302 -0.0525,-15.98084 -0.0983,-15.98084 -0.0423,0 -0.18967,0.33338 -0.32753,0.74083 -8.52206,25.188777 -10.55261,31.147027 -10.63228,31.198377 -0.0531,0.0342 -1.64444,0.0628 -3.53634,0.0635 -2.71964,10e-4 -3.45891,-0.0217 -3.5311,-0.10873 -0.0502,-0.0605 -2.51516,-7.25189 -5.47764,-15.980827 -2.96248,-8.72895 -5.4216,-15.90701 -5.46472,-15.95125 -0.0481,-0.0493 -0.0784,6.06476 -0.0784,15.81707 0,10.796637 -0.0281,15.950037 -0.0876,16.061257 -0.0848,0.15852 -0.22163,0.16377 -4.2653,0.16377 -3.43009,0 -4.19485,-0.0207 -4.27374,-0.11577 z"
           id="path4548"
           inkscape:connector-curvature="0" />
      </g>
      <path
         id="path4546"
         d="m 25.191141,90.536233 c -1.706959,-0.2264 -3.197949,-1.42297 -3.781259,-3.03459 -0.22394,-0.61872 -0.30078,-1.83801 -0.1589,-2.52145 0.33458,-1.61163 1.73317,-3.06007 3.359719,-3.47944 2.85548,-0.73623 5.7076,1.44624 5.73242,4.38649 0.007,0.85605 -0.13363,1.4502 -0.52404,2.21038 -0.85114,1.65732 -2.79518,2.68169 -4.62794,2.43861 z"
         style="fill:#f18e0b;stroke-width:0.08466667"
         inkscape:connector-curvature="0" />
      <path
         id="path4537"
         d="m -31.512439,76.922673 c -1.05865,-0.26908 -2.04853,-0.9349 -2.65641,-1.78677 -1.00291,-1.40544 -1.15699,-3.20795 -0.40642,-4.75449 0.67732,-1.39561 2.16974,-2.40305 3.75699,-2.53612 2.26883,-0.19022 4.39517,1.40686 4.86983,3.65766 0.15715,0.74519 0.15715,1.11749 0,1.86267 -0.33232,1.57588 -1.44452,2.8432 -2.98961,3.40659 -0.71711,0.26148 -1.87202,0.32898 -2.57438,0.15046 z"
         style="fill:#f18e0b;stroke-width:0.08466667"
         inkscape:connector-curvature="0" />
    </g>
  </g>
</svg>
